<?xml version="1.0" encoding="UTF-8" standalone="no"?>
<!DOCTYPE svg PUBLIC "-//W3C//DTD SVG 1.1//EN"
 "http://www.w3.org/Graphics/SVG/1.1/DTD/svg11.dtd">
<!-- Generated by graphviz version 2.42.4 (0)
 -->
<!-- Title: G Pages: 1 -->
<svg width="1422pt" height="122pt"
 viewBox="0.00 0.00 1422.00 122.00" xmlns="http://www.w3.org/2000/svg" xmlns:xlink="http://www.w3.org/1999/xlink">
<g id="graph0" class="graph" transform="scale(1 1) rotate(0) translate(4 118)">
<title>G</title>
<polygon fill="white" stroke="transparent" points="-4,4 -4,-118 1418,-118 1418,4 -4,4"/>
<!-- n1 -->
<g id="node1" class="node">
<title>n1</title>
<path fill="#f8fafc" stroke="#64748b" d="M44,-36C44,-36 12,-36 12,-36 6,-36 0,-30 0,-24 0,-24 0,-12 0,-12 0,-6 6,0 12,0 12,0 44,0 44,0 50,0 56,-6 56,-12 56,-12 56,-24 56,-24 56,-30 50,-36 44,-36"/>
<text text-anchor="middle" x="28" y="-21" font-family="Noto Sans CJK SC" font-size="10.00">剧集圣经</text>
<text text-anchor="middle" x="28" y="-10" font-family="Noto Sans CJK SC" font-size="10.00">Opus</text>
</g>
<!-- n2 -->
<g id="node2" class="node">
<title>n2</title>
<path fill="#f8fafc" stroke="#64748b" d="M133,-36C133,-36 101,-36 101,-36 95,-36 89,-30 89,-24 89,-24 89,-12 89,-12 89,-6 95,0 101,0 101,0 133,0 133,0 139,0 145,-6 145,-12 145,-12 145,-24 145,-24 145,-30 139,-36 133,-36"/>
<text text-anchor="middle" x="117" y="-21" font-family="Noto Sans CJK SC" font-size="10.00">单集剧本</text>
<text text-anchor="middle" x="117" y="-10" font-family="Noto Sans CJK SC" font-size="10.00">Sonnet</text>
</g>
<!-- n1&#45;&gt;n2 -->
<g id="edge1" class="edge">
<title>n1&#45;&gt;n2</title>
<path fill="none" stroke="#64748b" d="M56.05,-18C64.4,-18 73.69,-18 82.42,-18"/>
<polygon fill="#64748b" stroke="#64748b" points="82.47,-20.28 88.97,-18 82.47,-15.73 82.47,-20.28"/>
</g>
<!-- n3 -->
<g id="node3" class="node">
<title>n3</title>
<path fill="#f8fafc" stroke="#64748b" d="M240,-36C240,-36 190,-36 190,-36 184,-36 178,-30 178,-24 178,-24 178,-12 178,-12 178,-6 184,0 190,0 190,0 240,0 240,0 246,0 252,-6 252,-12 252,-12 252,-24 252,-24 252,-30 246,-36 240,-36"/>
<text text-anchor="middle" x="215" y="-21" font-family="Noto Sans CJK SC" font-size="10.00">结构化编译</text>
<text text-anchor="middle" x="215" y="-10" font-family="Noto Sans CJK SC" font-size="10.00">Terra + Luna</text>
</g>
<!-- n2&#45;&gt;n3 -->
<g id="edge2" class="edge">
<title>n2&#45;&gt;n3</title>
<path fill="none" stroke="#64748b" d="M145.25,-18C153.29,-18 162.29,-18 171.07,-18"/>
<polygon fill="#64748b" stroke="#64748b" points="171.21,-20.28 177.71,-18 171.21,-15.73 171.21,-20.28"/>
</g>
<!-- n4 -->
<g id="node4" class="node">
<title>n4</title>
<path fill="#f8fafc" stroke="#64748b" d="M347,-36C347,-36 297,-36 297,-36 291,-36 285,-30 285,-24 285,-24 285,-12 285,-12 285,-6 291,0 297,0 297,0 347,0 347,0 353,0 359,-6 359,-12 359,-12 359,-24 359,-24 359,-30 353,-36 347,-36"/>
<text text-anchor="middle" x="322" y="-21" font-family="Noto Sans CJK SC" font-size="10.00">分镜 / 关键帧</text>
<text text-anchor="middle" x="322" y="-10" font-family="Noto Sans CJK SC" font-size="10.00">Seedream</text>
</g>
<!-- n3&#45;&gt;n4 -->
<g id="edge3" class="edge">
<title>n3&#45;&gt;n4</title>
<path fill="none" stroke="#64748b" d="M252.14,-18C260.55,-18 269.59,-18 278.26,-18"/>
<polygon fill="#64748b" stroke="#64748b" points="278.3,-20.28 284.8,-18 278.3,-15.73 278.3,-20.28"/>
</g>
<!-- n5 -->
<g id="node5" class="node">
<title>n5</title>
<path fill="#f8fafc" stroke="#64748b" d="M460,-72C460,-72 404,-72 404,-72 398,-72 392,-66 392,-60 392,-60 392,-48 392,-48 392,-42 398,-36 404,-36 404,-36 460,-36 460,-36 466,-36 472,-42 472,-48 472,-48 472,-60 472,-60 472,-66 466,-72 460,-72"/>
<text text-anchor="middle" x="432" y="-51.5" font-family="Noto Sans CJK SC" font-size="10.00">Animatic 审核</text>
</g>
<!-- n4&#45;&gt;n5 -->
<g id="edge4" class="edge">
<title>n4&#45;&gt;n5</title>
<path fill="none" stroke="#64748b" d="M359.26,-30.09C367.65,-32.88 376.67,-35.89 385.39,-38.8"/>
<polygon fill="#64748b" stroke="#64748b" points="384.8,-41 391.68,-40.89 386.23,-36.68 384.8,-41"/>
</g>
<!-- n6 -->
<g id="node6" class="node">
<title>n6</title>
<path fill="#f8fafc" stroke="#64748b" d="M615,-72C615,-72 517,-72 517,-72 511,-72 505,-66 505,-60 505,-60 505,-48 505,-48 505,-42 511,-36 517,-36 517,-36 615,-36 615,-36 621,-36 627,-42 627,-48 627,-48 627,-60 627,-60 627,-66 621,-72 615,-72"/>
<text text-anchor="middle" x="566" y="-57" font-family="Noto Sans CJK SC" font-size="10.00">视频 + 音频</text>
<text text-anchor="middle" x="566" y="-46" font-family="Noto Sans CJK SC" font-size="10.00">Seedance / GPT&#45;SoVITS</text>
</g>
<!-- n5&#45;&gt;n6 -->
<g id="edge5" class="edge">
<title>n5&#45;&gt;n6</title>
<path fill="none" stroke="#64748b" d="M472.25,-54C480.36,-54 489.13,-54 497.92,-54"/>
<polygon fill="#64748b" stroke="#64748b" points="498.13,-56.28 504.63,-54 498.13,-51.73 498.13,-56.28"/>
</g>
<!-- n7 -->
<g id="node7" class="node">
<title>n7</title>
<path fill="#f8fafc" stroke="#64748b" d="M702,-114C702,-114 672,-114 672,-114 666,-114 660,-108 660,-102 660,-102 660,-90 660,-90 660,-84 666,-78 672,-78 672,-78 702,-78 702,-78 708,-78 714,-84 714,-90 714,-90 714,-102 714,-102 714,-108 708,-114 702,-114"/>
<text text-anchor="middle" x="687" y="-99" font-family="Noto Sans CJK SC" font-size="10.00">技术 QC</text>
<text text-anchor="middle" x="687" y="-88" font-family="Noto Sans CJK SC" font-size="10.00">FFmpeg</text>
</g>
<!-- n6&#45;&gt;n7 -->
<g id="edge6" class="edge">
<title>n6&#45;&gt;n7</title>
<path fill="none" stroke="#64748b" d="M618.16,-72.06C630.16,-76.29 642.63,-80.69 653.56,-84.55"/>
<polygon fill="#64748b" stroke="#64748b" points="652.91,-86.73 659.79,-86.75 654.42,-82.44 652.91,-86.73"/>
</g>
<!-- n8 -->
<g id="node8" class="node">
<title>n8</title>
<path fill="#f8fafc" stroke="#64748b" d="M862,-114C862,-114 830,-114 830,-114 824,-114 818,-108 818,-102 818,-102 818,-90 818,-90 818,-84 824,-78 830,-78 830,-78 862,-78 862,-78 868,-78 874,-84 874,-90 874,-90 874,-102 874,-102 874,-108 868,-114 862,-114"/>
<text text-anchor="middle" x="846" y="-99" font-family="Noto Sans CJK SC" font-size="10.00">视频理解</text>
<text text-anchor="middle" x="846" y="-88" font-family="Noto Sans CJK SC" font-size="10.00">Gemini</text>
</g>
<!-- n7&#45;&gt;n8 -->
<g id="edge7" class="edge">
<title>n7&#45;&gt;n8</title>
<path fill="none" stroke="#64748b" d="M714.28,-96C740.87,-96 782.08,-96 811.11,-96"/>
<polygon fill="#64748b" stroke="#64748b" points="811.35,-98.28 817.85,-96 811.35,-93.73 811.35,-98.28"/>
</g>
<!-- n9 -->
<g id="node9" class="node">
<title>n9</title>
<path fill="#f8fafc" stroke="#64748b" d="M993,-114C993,-114 961,-114 961,-114 955,-114 949,-108 949,-102 949,-102 949,-90 949,-90 949,-84 955,-78 961,-78 961,-78 993,-78 993,-78 999,-78 1005,-84 1005,-90 1005,-90 1005,-102 1005,-102 1005,-108 999,-114 993,-114"/>
<text text-anchor="middle" x="977" y="-99" font-family="Noto Sans CJK SC" font-size="10.00">逐帧测量</text>
<text text-anchor="middle" x="977" y="-88" font-family="Noto Sans CJK SC" font-size="10.00">CV</text>
</g>
<!-- n8&#45;&gt;n9 -->
<g id="edge8" class="edge">
<title>n8&#45;&gt;n9</title>
<path fill="none" stroke="#64748b" d="M874.04,-96C893.91,-96 921.03,-96 942.31,-96"/>
<polygon fill="#64748b" stroke="#64748b" points="942.49,-98.28 948.99,-96 942.49,-93.73 942.49,-98.28"/>
</g>
<!-- n10 -->
<g id="node10" class="node">
<title>n10</title>
<path fill="#f8fafc" stroke="#64748b" d="M1090,-114C1090,-114 1050,-114 1050,-114 1044,-114 1038,-108 1038,-102 1038,-102 1038,-90 1038,-90 1038,-84 1044,-78 1050,-78 1050,-78 1090,-78 1090,-78 1096,-78 1102,-84 1102,-90 1102,-90 1102,-102 1102,-102 1102,-108 1096,-114 1090,-114"/>
<text text-anchor="middle" x="1070" y="-99" font-family="Noto Sans CJK SC" font-size="10.00">叙事仲裁</text>
<text text-anchor="middle" x="1070" y="-88" font-family="Noto Sans CJK SC" font-size="10.00">Opus / Sol</text>
</g>
<!-- n9&#45;&gt;n10 -->
<g id="edge9" class="edge">
<title>n9&#45;&gt;n10</title>
<path fill="none" stroke="#64748b" d="M1005.3,-96C1013.48,-96 1022.6,-96 1031.32,-96"/>
<polygon fill="#64748b" stroke="#64748b" points="1031.39,-98.28 1037.89,-96 1031.39,-93.73 1031.39,-98.28"/>
</g>
<!-- n11 -->
<g id="node11" class="node">
<title>n11</title>
<path fill="#f8fafc" stroke="#64748b" d="M1179,-65C1179,-65 1147,-65 1147,-65 1141,-65 1135,-59 1135,-53 1135,-53 1135,-41 1135,-41 1135,-35 1141,-29 1147,-29 1147,-29 1179,-29 1179,-29 1185,-29 1191,-35 1191,-41 1191,-41 1191,-53 1191,-53 1191,-59 1185,-65 1179,-65"/>
<text text-anchor="middle" x="1163" y="-44.5" font-family="Noto Sans CJK SC" font-size="10.00">人工审核</text>
</g>
<!-- n10&#45;&gt;n11 -->
<g id="edge10" class="edge">
<title>n10&#45;&gt;n11</title>
<path fill="none" stroke="#64748b" d="M1102.06,-79.27C1110.68,-74.63 1120.07,-69.58 1128.8,-64.87"/>
<polygon fill="#64748b" stroke="#64748b" points="1130.08,-66.77 1134.73,-61.68 1127.93,-62.76 1130.08,-66.77"/>
</g>
<!-- n11&#45;&gt;n4 -->
<g id="edge14" class="edge">
<title>n11&#45;&gt;n4</title>
<path fill="none" stroke="#64748b" stroke-dasharray="5,2" d="M1137.88,-28.94C1120.29,-17.56 1095.36,-5 1071,-5 431,-5 431,-5 431,-5 409.45,-5 385.66,-7.58 365.9,-10.45"/>
<polygon fill="#64748b" stroke="#64748b" points="365.45,-8.21 359.36,-11.42 366.13,-12.71 365.45,-8.21"/>
<text text-anchor="middle" x="766" y="-8.8" font-family="Times,serif" font-size="14.00">重做关键帧</text>
</g>
<!-- n11&#45;&gt;n6 -->
<g id="edge13" class="edge">
<title>n11&#45;&gt;n6</title>
<path fill="none" stroke="#64748b" stroke-dasharray="5,2" d="M1134.92,-47C1116.83,-47 1092.49,-47 1071,-47 686,-47 686,-47 686,-47 669.1,-47 650.87,-47.71 633.89,-48.68"/>
<polygon fill="#64748b" stroke="#64748b" points="633.55,-46.42 627.19,-49.08 633.82,-50.97 633.55,-46.42"/>
<text text-anchor="middle" x="911.5" y="-50.8" font-family="Times,serif" font-size="14.00">重生成</text>
</g>
<!-- n12 -->
<g id="node12" class="node">
<title>n12</title>
<path fill="#f8fafc" stroke="#64748b" d="M1313,-65C1313,-65 1236,-65 1236,-65 1230,-65 1224,-59 1224,-53 1224,-53 1224,-41 1224,-41 1224,-35 1230,-29 1236,-29 1236,-29 1313,-29 1313,-29 1319,-29 1325,-35 1325,-41 1325,-41 1325,-53 1325,-53 1325,-59 1319,-65 1313,-65"/>
<text text-anchor="middle" x="1274.5" y="-44.5" font-family="Noto Sans CJK SC" font-size="10.00">时间线 / 混音 / 字幕</text>
</g>
<!-- n11&#45;&gt;n12 -->
<g id="edge11" class="edge">
<title>n11&#45;&gt;n12</title>
<path fill="none" stroke="#64748b" d="M1191.07,-47C1199.02,-47 1208.02,-47 1217.09,-47"/>
<polygon fill="#64748b" stroke="#64748b" points="1217.19,-49.28 1223.69,-47 1217.19,-44.73 1217.19,-49.28"/>
</g>
<!-- n13 -->
<g id="node13" class="node">
<title>n13</title>
<path fill="#f8fafc" stroke="#64748b" d="M1402,-65C1402,-65 1370,-65 1370,-65 1364,-65 1358,-59 1358,-53 1358,-53 1358,-41 1358,-41 1358,-35 1364,-29 1370,-29 1370,-29 1402,-29 1402,-29 1408,-29 1414,-35 1414,-41 1414,-41 1414,-53 1414,-53 1414,-59 1408,-65 1402,-65"/>
<text text-anchor="middle" x="1386" y="-44.5" font-family="Noto Sans CJK SC" font-size="10.00">成片导出</text>
</g>
<!-- n12&#45;&gt;n13 -->
<g id="edge12" class="edge">
<title>n12&#45;&gt;n13</title>
<path fill="none" stroke="#64748b" d="M1325.12,-47C1333.88,-47 1342.81,-47 1351.01,-47"/>
<polygon fill="#64748b" stroke="#64748b" points="1351.2,-49.28 1357.7,-47 1351.2,-44.73 1351.2,-49.28"/>
</g>
</g>
</svg>
