<?xml version="1.0" encoding="UTF-8" standalone="no"?>
<!DOCTYPE svg PUBLIC "-//W3C//DTD SVG 1.1//EN"
 "http://www.w3.org/Graphics/SVG/1.1/DTD/svg11.dtd">
<!-- Generated by graphviz version 2.42.4 (0)
 -->
<!-- Title: G Pages: 1 -->
<svg width="887pt" height="44pt"
 viewBox="0.00 0.00 887.00 44.00" xmlns="http://www.w3.org/2000/svg" xmlns:xlink="http://www.w3.org/1999/xlink">
<g id="graph0" class="graph" transform="scale(1 1) rotate(0) translate(4 40)">
<title>G</title>
<polygon fill="white" stroke="transparent" points="-4,4 -4,-40 883,-40 883,4 -4,4"/>
<!-- a -->
<g id="node1" class="node">
<title>a</title>
<path fill="#f8fafc" stroke="#64748b" d="M122,-36C122,-36 12,-36 12,-36 6,-36 0,-30 0,-24 0,-24 0,-12 0,-12 0,-6 6,0 12,0 12,0 122,0 122,0 128,0 134,-6 134,-12 134,-12 134,-24 134,-24 134,-30 128,-36 122,-36"/>
<text text-anchor="middle" x="67" y="-21.2" font-family="Noto Sans CJK SC" font-size="11.00">语义事实层</text>
<text text-anchor="middle" x="67" y="-9.2" font-family="Noto Sans CJK SC" font-size="11.00">人物 / 动作 / 状态 / 因果</text>
</g>
<!-- b -->
<g id="node2" class="node">
<title>b</title>
<path fill="#f8fafc" stroke="#64748b" d="M314,-36C314,-36 182,-36 182,-36 176,-36 170,-30 170,-24 170,-24 170,-12 170,-12 170,-6 176,0 182,0 182,0 314,0 314,0 320,0 326,-6 326,-12 326,-12 326,-24 326,-24 326,-30 320,-36 314,-36"/>
<text text-anchor="middle" x="248" y="-21.2" font-family="Noto Sans CJK SC" font-size="11.00">导演表达层</text>
<text text-anchor="middle" x="248" y="-9.2" font-family="Noto Sans CJK SC" font-size="11.00">景别 / 机位 / 表演 / 声音策略</text>
</g>
<!-- a&#45;&gt;b -->
<g id="edge1" class="edge">
<title>a&#45;&gt;b</title>
<path fill="none" stroke="#64748b" d="M134.14,-18C142.52,-18 151.19,-18 159.83,-18"/>
<polygon fill="#64748b" stroke="#64748b" points="159.94,-21.5 169.94,-18 159.94,-14.5 159.94,-21.5"/>
</g>
<!-- c -->
<g id="node3" class="node">
<title>c</title>
<path fill="#f8fafc" stroke="#64748b" d="M457,-36C457,-36 374,-36 374,-36 368,-36 362,-30 362,-24 362,-24 362,-12 362,-12 362,-6 368,0 374,0 374,0 457,0 457,0 463,0 469,-6 469,-12 469,-12 469,-24 469,-24 469,-30 463,-36 457,-36"/>
<text text-anchor="middle" x="415.5" y="-21.2" font-family="Noto Sans CJK SC" font-size="11.00">Generation IR</text>
<text text-anchor="middle" x="415.5" y="-9.2" font-family="Noto Sans CJK SC" font-size="11.00">模型无关中间表示</text>
</g>
<!-- b&#45;&gt;c -->
<g id="edge2" class="edge">
<title>b&#45;&gt;c</title>
<path fill="none" stroke="#64748b" d="M326.42,-18C334.82,-18 343.29,-18 351.49,-18"/>
<polygon fill="#64748b" stroke="#64748b" points="351.7,-21.5 361.7,-18 351.7,-14.5 351.7,-21.5"/>
</g>
<!-- d -->
<g id="node4" class="node">
<title>d</title>
<path fill="#f8fafc" stroke="#64748b" d="M597,-36C597,-36 517,-36 517,-36 511,-36 505,-30 505,-24 505,-24 505,-12 505,-12 505,-6 511,0 517,0 517,0 597,0 597,0 603,0 609,-6 609,-12 609,-12 609,-24 609,-24 609,-30 603,-36 597,-36"/>
<text text-anchor="middle" x="557" y="-15.2" font-family="Noto Sans CJK SC" font-size="11.00">Provider Adapter</text>
</g>
<!-- c&#45;&gt;d -->
<g id="edge3" class="edge">
<title>c&#45;&gt;d</title>
<path fill="none" stroke="#64748b" d="M469.24,-18C477.47,-18 486.03,-18 494.43,-18"/>
<polygon fill="#64748b" stroke="#64748b" points="494.57,-21.5 504.57,-18 494.57,-14.5 494.57,-21.5"/>
</g>
<!-- e -->
<g id="node5" class="node">
<title>e</title>
<path fill="#f8fafc" stroke="#64748b" d="M769,-36C769,-36 657,-36 657,-36 651,-36 645,-30 645,-24 645,-24 645,-12 645,-12 645,-6 651,0 657,0 657,0 769,0 769,0 775,0 781,-6 781,-12 781,-12 781,-24 781,-24 781,-30 775,-36 769,-36"/>
<text text-anchor="middle" x="713" y="-15.2" font-family="Noto Sans CJK SC" font-size="11.00">提示词 / 参数 / 参考资产</text>
</g>
<!-- d&#45;&gt;e -->
<g id="edge4" class="edge">
<title>d&#45;&gt;e</title>
<path fill="none" stroke="#64748b" d="M609.28,-18C617.46,-18 626.07,-18 634.69,-18"/>
<polygon fill="#64748b" stroke="#64748b" points="634.78,-21.5 644.78,-18 634.78,-14.5 634.78,-21.5"/>
</g>
<!-- f -->
<g id="node6" class="node">
<title>f</title>
<path fill="#f8fafc" stroke="#64748b" d="M867,-36C867,-36 829,-36 829,-36 823,-36 817,-30 817,-24 817,-24 817,-12 817,-12 817,-6 823,0 829,0 829,0 867,0 867,0 873,0 879,-6 879,-12 879,-12 879,-24 879,-24 879,-30 873,-36 867,-36"/>
<text text-anchor="middle" x="848" y="-15.2" font-family="Noto Sans CJK SC" font-size="11.00">生成资产</text>
</g>
<!-- e&#45;&gt;f -->
<g id="edge5" class="edge">
<title>e&#45;&gt;f</title>
<path fill="none" stroke="#64748b" d="M781.28,-18C789.97,-18 798.64,-18 806.71,-18"/>
<polygon fill="#64748b" stroke="#64748b" points="806.9,-21.5 816.9,-18 806.9,-14.5 806.9,-21.5"/>
</g>
</g>
</svg>
